# xmcd CD database file generated by OrangeCD 6.4
#
# Track frame offsets:
#	150
#	535
#	15985
#	40735
#	56335
#	75235
#	92635
#	112225
#
# Disc length: 1700 seconds
#
# Revision: 0
# Processed by: cddbd v1.5.2PL0 Copyright (c) Steve Scherf et al.
# Submitted via: OrangeCD 6.4
#
DISCID=4b06a208
DTITLE=Mookie Blake and the Certified - Sophie's Roadhouse
DYEAR=2015
DGENRE=Country
TTITLE0=Intro
TTITLE1=Worried Man
TTITLE2=Porcelana
TTITLE3=San Andreas
TTITLE4=Giddy Up
TTITLE5=It's Not Ova
TTITLE6=Say I Say
TTITLE7=Out-takes
EXTD=
EXTT0=
EXTT1=
EXTT2=
EXTT3=
EXTT4=
EXTT5=
EXTT6=
EXTT7=
PLAYORDER=
